# xmcd
#
# Track frame offsets: 
#        150
#        19927
#        42390
#        59162
#        80525
#        92193
#        115057
#        128442
#        139806
#        156280
#        167623
#        190165
#
# Disc length: 2767 seconds
#
# Revision: 0
# Processed by: cddbd v1.5.2PL0 Copyright (c) Steve Scherf et al.
# Submitted via: ExactAudioCopy v0.99pb3
#
DISCID=a10acd0c
DTITLE=Eric Hisaw - Never Could Walk The Line 
DYEAR=2002
DGENRE=Country
TTITLE0=Maybe the Devil
TTITLE1=Garage Sale
TTITLE2=What it Means to Be Free
TTITLE3=Something Good To Say
TTITLE4=Ain't How it Was
TTITLE5=First Time Again
TTITLE6=Never Could Walk the Line
TTITLE7=Ramblin' Blues
TTITLE8=Danced With the Prettiest Girl
TTITLE9=I Don't Wanna Work
TTITLE10=Too Damn Pretty
TTITLE11=Under the Moonlight
EXTD=
EXTT0=
EXTT1=
EXTT2=
EXTT3=
EXTT4=
EXTT5=
EXTT6=
EXTT7=
EXTT8=
EXTT9=
EXTT10=
EXTT11=
PLAYORDER=
